<?xml version="1.0" encoding="UTF-8"?>
<!DOCTYPE svg PUBLIC "-//W3C//DTD SVG 1.1//EN" "http://www.w3.org/Graphics/SVG/1.1/DTD/svg11.dtd">
<!-- Creator: CorelDRAW X7 -->
<svg xmlns="http://www.w3.org/2000/svg" xml:space="preserve" width="150.5mm" height="33mm" version="1.1" style="shape-rendering:geometricPrecision; text-rendering:geometricPrecision; image-rendering:optimizeQuality; fill-rule:evenodd; clip-rule:evenodd"
viewBox="0 0 150500 33000"
 xmlns:xlink="http://www.w3.org/1999/xlink">
 <defs>
  <style type="text/css">
   <![CDATA[
    .fil0 {fill:#26488B}
   ]]>
  </style>
 </defs>
 <g id="Layer_x0020_1">
  <metadata id="CorelCorpID_0Corel-Layer"/>
  <g id="_2172072199712">
   <path class="fil0" d="M28365 15361l6936 11584 -7266 0 -1477 -2511 -7502 0 -1589 2511 -2829 0 7377 -11584 6350 0zm-8599 7911l6119 0 -2941 -5136 -3178 5136zm33774 -4669l-3359 289c144,-312 218,-570 218,-782 0,-1347 -1757,-2019 -5271,-2019 -2773,0 -4163,464 -4163,1391 0,698 1552,1295 4655,1793 5988,956 8979,2369 8979,4241 0,1097 -841,1978 -2517,2644 -1683,664 -3913,997 -6705,997 -6169,0 -9254,-1113 -9254,-3334 0,-183 31,-406 94,-672l3483 -357c-268,493 -399,921 -399,1283 0,1437 1770,2156 5309,2156 2836,0 4256,-519 4256,-1553 0,-771 -1694,-1445 -5091,-2028 -4904,-837 -7359,-2175 -7359,-4014 0,-1040 816,-1880 2455,-2515 1639,-637 3789,-956 6456,-956 5477,0 8213,1145 8213,3436zm20738 3693l3084 371c50,295 75,550 75,765 0,1126 -878,2024 -2629,2696 -1751,675 -4101,1011 -7048,1011 -7384,0 -11079,-1932 -11079,-5796 0,-1831 1078,-3317 3234,-4458 2149,-1138 4954,-1709 8412,-1709 5390,0 8088,1205 8088,3615l-3103 660c37,-338 56,-602 56,-787 0,-1709 -1470,-2564 -4418,-2564 -3116,0 -4673,1813 -4673,5440 0,3117 1738,4675 5221,4675 1434,0 2630,-266 3583,-796 954,-533 1434,-1197 1434,-1996 0,-255 -81,-632 -237,-1127zm22040 -6935l0 1162 -8929 0 0 3505 7502 0 0 1161 -7502 0 0 4595 10443 0 0 1161 -17672 0 0 -11584 16158 0zm42479 3242l-3358 289c143,-312 218,-570 218,-782 0,-1347 -1757,-2019 -5272,-2019 -2773,0 -4163,464 -4163,1391 0,698 1552,1295 4655,1793 5989,956 8980,2369 8980,4241 0,1097 -842,1978 -2518,2644 -1682,664 -3913,997 -6705,997 -6169,0 -9253,-1113 -9253,-3334 0,-183 31,-406 93,-672l3483 -357c-267,493 -398,921 -398,1283 0,1437 1769,2156 5309,2156 2835,0 4256,-519 4256,-1553 0,-771 -1695,-1445 -5091,-2028 -4904,-837 -7359,-2175 -7359,-4014 0,-1040 816,-1880 2455,-2515 1639,-637 3788,-956 6455,-956 5478,0 8213,1145 8213,3436z"/>
   <path class="fil0" d="M147381 36c522,0 1031,133 1528,400 496,269 884,651 1161,1150 277,498 416,1018 416,1559 0,536 -136,1050 -410,1543 -273,495 -657,879 -1149,1152 -493,274 -1007,410 -1546,410 -538,0 -1054,-136 -1546,-410 -493,-273 -877,-657 -1151,-1152 -276,-493 -412,-1007 -412,-1543 0,-541 139,-1061 417,-1559 279,-499 667,-881 1164,-1150 496,-267 1007,-400 1528,-400zm0 514c-437,0 -861,113 -1275,336 -413,224 -736,544 -970,959 -233,416 -350,849 -350,1300 0,447 116,876 345,1286 229,411 549,731 961,960 412,229 841,345 1289,345 447,0 877,-116 1289,-345 412,-229 731,-549 959,-960 228,-410 341,-839 341,-1286 0,-451 -115,-884 -347,-1300 -232,-415 -555,-735 -970,-959 -414,-223 -839,-336 -1272,-336zm-1363 4311l0 -3342 1148 0c394,0 678,29 853,91 176,62 315,170 421,323 104,155 156,318 156,491 0,244 -87,457 -262,638 -174,181 -406,283 -694,305 118,49 214,108 284,177 135,132 299,353 495,664l407 653 -659 0 -297 -527c-233,-413 -420,-673 -563,-777 -99,-77 -243,-115 -433,-115l-316 0 0 1419 -540 0zm540 -1880l655 0c312,0 525,-48 639,-141 114,-93 172,-216 172,-371 0,-99 -28,-187 -83,-266 -55,-77 -131,-136 -228,-174 -98,-39 -278,-58 -543,-58l-612 0 0 1010z"/>
   <path class="fil0" d="M115 6424l143575 0 0 26274 -143575 0 0 -26274zm12485 1650l129440 0 0 20503 -129440 0 0 -20503z"/>
   <path class="fil0" d="M100962 23121l0 -13826 4870 0 -31 13512c0,589 370,752 910,962 572,224 1202,141 2036,141l0 3495c-4006,203 -7785,-844 -7785,-4284z"/>
   <path class="fil0" d="M110794 23121l0 -13826 4869 0 -30 13512c-1,589 369,752 909,962 572,224 1203,141 2037,141l0 3495c-4007,203 -7785,-844 -7785,-4284z"/>
  </g>
 </g>
</svg>
