<?xml version="1.0" encoding="UTF-8"?>
<!DOCTYPE svg PUBLIC "-//W3C//DTD SVG 1.1//EN" "http://www.w3.org/Graphics/SVG/1.1/DTD/svg11.dtd">
<!-- Creator: CorelDRAW X7 -->
<svg xmlns="http://www.w3.org/2000/svg" xml:space="preserve" width="100%" height="100%" version="1.1" style="shape-rendering:geometricPrecision; text-rendering:geometricPrecision; image-rendering:optimizeQuality; fill-rule:evenodd; clip-rule:evenodd"
viewBox="0 0 14400 2635" xmlns:xlink="http://www.w3.org/1999/xlink">
  <g id="Layer_x0020_1">
    <metadata id="CorelCorpID_0Corel-Layer"/>
    <path fill="#26488c" d="M2833 896l696 1162 -729 0 -148 -252 -752 0 -160 252 -283 0 740 -1162 636 0zm-862 794l614 0 -295 -515 -319 515zm3387 -469l-337 30c15,-32 22,-58 22,-79 0,-135 -176,-202 -528,-202 -279,0 -418,46 -418,139 0,70 156,130 467,180 601,96 901,238 901,425 0,110 -85,199 -253,265 -169,67 -392,100 -672,100 -619,0 -929,-111 -929,-334 0,-18 4,-41 10,-67l349 -36c-27,49 -40,92 -40,129 0,144 178,216 533,216 284,0 427,-52 427,-156 0,-77 -170,-145 -511,-203 -492,-84 -738,-219 -738,-403 0,-104 82,-189 246,-252 164,-64 380,-96 648,-96 549,0 823,115 823,344zm2080 371l310 37c5,30 7,55 7,77 0,113 -88,203 -264,270 -175,68 -411,102 -706,102 -741,0 -1112,-194 -1112,-582 0,-183 108,-332 325,-447 215,-114 497,-171 843,-171 541,0 812,121 812,362l-312 67c4,-34 6,-61 6,-79 0,-172 -147,-258 -443,-258 -313,0 -469,182 -469,546 0,313 175,469 524,469 144,0 264,-27 359,-80 96,-53 144,-120 144,-200 0,-26 -8,-63 -24,-113zm2211 -696l0 117 -896 0 0 351 753 0 0 117 -753 0 0 461 1048 0 0 116 -1773 0 0 -1162 1621 0zm4260 325l-337 30c15,-32 22,-58 22,-79 0,-135 -176,-202 -528,-202 -279,0 -418,46 -418,139 0,70 156,130 467,180 601,96 901,238 901,425 0,110 -85,199 -253,265 -169,67 -392,100 -672,100 -619,0 -929,-111 -929,-334 0,-18 4,-41 10,-67l349 -36c-27,49 -40,92 -40,129 0,144 178,216 533,216 284,0 427,-52 427,-156 0,-77 -170,-145 -511,-203 -492,-84 -738,-219 -738,-403 0,-104 82,-189 246,-252 164,-64 380,-96 648,-96 549,0 823,115 823,344z"/>
    <path fill="#26488c" d="M0 0l14400 0 0 2635 -14400 0 0 -2635zm1252 165l12983 0 0 2057 -12983 0 0 -2057z"/>
    <path fill="#26488c" d="M10115 1675l0 -1387 488 0 -3 1355c0,59 37,76 91,97 58,22 121,14 204,14l0 350c-401,21 -780,-84 -780,-429z"/>
    <path fill="#26488c" d="M11101 1675l0 -1387 488 0 -3 1355c0,59 37,76 91,97 58,22 121,14 204,14l0 350c-401,21 -780,-84 -780,-429z"/>
  </g>
</svg>
